<svg xmlns="http://www.w3.org/2000/svg" viewBox="0 0 200 200" width="200" height="200">
  <!-- Vault/Encapsulation symbol - white for dark mode -->
  <rect x="60" y="70" width="80" height="60" rx="5" fill="none" stroke="#FFFFFF" stroke-width="4"/>
  <rect x="70" y="80" width="60" height="40" rx="3" fill="none" stroke="#E1BEE7" stroke-width="3"/>
  <circle cx="100" cy="100" r="8" fill="#FFFFFF"/>
  <line x1="100" y1="100" x2="115" y2="100" stroke="#FFFFFF" stroke-width="3" stroke-linecap="round"/>

  <!-- AWS Cloud elements - orange -->
  <path d="M 50 50 Q 45 45 50 40 Q 55 35 60 40 Q 65 35 70 40 Q 75 45 70 50 Z" fill="#FF9900"/>
  <path d="M 130 50 Q 125 45 130 40 Q 135 35 140 40 Q 145 35 150 40 Q 155 45 150 50 Z" fill="#FF9900"/>

  <!-- Layer lines - light purple/white -->
  <line x1="40" y1="140" x2="160" y2="140" stroke="#E1BEE7" stroke-width="2"/>
  <line x1="40" y1="150" x2="160" y2="150" stroke="#CE93D8" stroke-width="2"/>
  <line x1="40" y1="160" x2="160" y2="160" stroke="#BA68C8" stroke-width="2"/>
</svg>
